<svg width="32" height="32" viewBox="0 0 32 32" fill="none" xmlns="http://www.w3.org/2000/svg">
<path d="M19.8747 14.551C21.1686 13.452 21.9923 11.8148 21.9923 9.9883C21.9923 6.68717 19.3033 4 15.9986 4C12.6939 4 10.0063 6.68716 10.0063 9.9897C10.0063 11.8162 10.8301 13.452 12.1239 14.5524C8.044 15.5336 5 19.2469 5 23.6666C5 25.5043 6.4797 27 8.29778 27H23.7022C25.5203 27 27 25.5043 27 23.6666C26.9986 19.2455 23.9546 15.5336 19.8747 14.551ZM19.8331 23.3022H12.1655C11.7065 23.3022 11.3335 22.9251 11.3335 22.4611C11.3335 21.9971 11.7065 21.6201 12.1655 21.6201H19.8331C20.2921 21.6201 20.6652 21.9971 20.6652 22.4611C20.6652 22.9251 20.2921 23.3022 19.8331 23.3022Z" fill="#DDDDDD"/>
</svg>
