<svg width="32" height="32" viewBox="0 0 32 32" fill="none" xmlns="http://www.w3.org/2000/svg">
<path d="M16.0699 27.8039C15.2169 27.8335 14.3641 27.743 13.5365 27.5351C11.7893 27.0271 8.30696 27.4067 5.51228 27.9605C5.51228 27.9605 5.27112 27.9999 5.25605 27.9999C5.06598 28.0017 4.87803 27.96 4.70663 27.878C4.53523 27.796 4.38493 27.676 4.26724 27.5271C4.14956 27.3782 4.06763 27.2044 4.02773 27.0191C3.98783 26.8337 3.99103 26.6417 4.03707 26.4577C4.63306 23.7641 4.86291 20.5631 4.40006 18.3951C3.88324 15.9887 4.12696 13.4817 5.09766 11.2193C6.06837 8.95679 7.71833 7.05007 9.82039 5.76162C11.9224 4.47317 14.3732 3.86633 16.8354 4.02467C19.2975 4.183 21.6499 5.09871 23.5687 6.64573C25.4874 8.19275 26.8783 10.295 27.5497 12.6631C28.2211 15.0312 28.1401 17.5486 27.3177 19.8688C26.4954 22.1891 24.9722 24.198 22.9579 25.6191C20.9436 27.0401 18.5371 27.8034 16.0699 27.8039ZM10.9773 19.6604H17.2575C17.5073 19.6604 17.7469 19.5615 17.9236 19.3852C18.1002 19.209 18.1995 18.97 18.1995 18.7208C18.1995 18.4716 18.1002 18.2326 17.9236 18.0564C17.7469 17.8802 17.5073 17.7812 17.2575 17.7812H10.9773C10.7274 17.7812 10.4878 17.8802 10.3112 18.0564C10.1345 18.2326 10.0353 18.4716 10.0353 18.7208C10.0353 18.97 10.1345 19.209 10.3112 19.3852C10.4878 19.5615 10.7274 19.6604 10.9773 19.6604ZM21.0256 12.7699H10.9773C10.7274 12.7699 10.4878 12.8688 10.3112 13.0451C10.1345 13.2213 10.0353 13.4603 10.0353 13.7095C10.0353 13.9587 10.1345 14.1977 10.3112 14.3739C10.4878 14.5501 10.7274 14.6491 10.9773 14.6491H21.0256C21.2754 14.6491 21.515 14.5501 21.6917 14.3739C21.8683 14.1977 21.9676 13.9587 21.9676 13.7095C21.9676 13.4603 21.8683 13.2213 21.6917 13.0451C21.515 12.8688 21.2754 12.7699 21.0256 12.7699Z" fill="black"/>
</svg>
