<svg width="26" height="24" viewBox="0 0 26 24" fill="none" xmlns="http://www.w3.org/2000/svg">
<path d="M23.8006 11.4409C22.6312 10.2955 21.1452 9.57614 19.5339 9.35795V6.15682C20.2752 5.78864 20.7868 5.03864 20.7868 4.17955C20.7868 2.95568 19.7567 1.95682 18.4899 1.95682C17.2231 1.95682 16.193 2.95227 16.193 4.17955C16.193 5.04205 16.7011 5.78864 17.4459 6.15682V9.35795C16.2348 9.52159 15.0933 9.97159 14.1049 10.6705C13.7639 10.0636 13.3358 9.50114 12.8208 8.99659C11.6515 7.85114 10.1654 7.13182 8.55414 6.91364V4.2C9.29541 3.83182 9.80699 3.08182 9.80699 2.22273C9.80699 0.998864 8.77687 0 7.51011 0C6.24334 0 5.21323 0.995454 5.21323 2.22273C5.21323 3.08523 5.72132 3.83182 6.46607 4.2V6.91364C4.85825 7.13182 3.36876 7.85114 2.19944 8.99659C0.783028 10.3841 0 12.2318 0 14.1989C0 16.1659 0.779548 18.0102 2.19944 19.4011C3.61585 20.7886 5.50208 21.5557 7.51011 21.5557C9.10748 21.5557 10.6283 21.0716 11.8951 20.1716C12.2361 20.7784 12.6642 21.3409 13.1792 21.8455C14.5956 23.233 16.4819 24 18.4899 24C20.4979 24 22.3807 23.2364 23.8006 21.8455C25.217 20.458 26 18.6102 26 16.6432C26 14.6761 25.217 12.8284 23.8006 11.4409ZM7.51359 14.8398C5.98929 14.8398 4.75037 13.6295 4.75037 12.133C4.75037 10.6398 5.98581 9.42614 7.51359 9.42614C9.04136 9.42614 10.2768 10.6364 10.2768 12.133C10.2768 13.6261 9.03788 14.8398 7.51359 14.8398ZM18.4899 17.2841C16.9656 17.2841 15.7267 16.0739 15.7267 14.5773C15.7267 13.0841 16.9621 11.8705 18.4899 11.8705C20.0177 11.8705 21.2531 13.0807 21.2531 14.5773C21.2531 16.0705 20.0177 17.2841 18.4899 17.2841Z" fill="black"/>
</svg>
