<svg width="32" height="32" viewBox="0 0 32 32" fill="none" xmlns="http://www.w3.org/2000/svg">
<path d="M24.5699 20.7932C24.2014 20.219 23.6777 19.8824 23.0765 19.6448C23.6195 19.6448 24.2014 19.625 24.7833 19.5656C22.7467 17.1896 23.2122 16.6352 22.9213 12.2397C22.8631 8.75496 21.5636 4.28023 20.1478 3.23085C17.8397 1.50828 13.1267 1.58748 10.838 3.50804C10.004 4.20103 9.09242 6.1018 8.82088 8.37876C8.08386 14.5563 6.92014 15.1502 5 16.1798C6.45465 16.5956 7.77354 16.4768 8.93726 15.764C8.43298 17.0312 7.63777 17.5856 6.82316 18.0806C7.98688 19.0112 9.36395 19.2884 10.6247 19.0508C9.38335 19.3676 8.00628 19.5656 7.26926 20.318C4.72847 22.9513 5.0194 28.119 5.38791 30C12.1957 30 19.0228 30 25.8306 30C26.1409 28.1982 26.1797 23.3275 24.5699 20.7932ZM11.5362 10.7745C11.5556 10.5171 11.575 10.2597 11.6138 10.0221C12.1957 10.1607 12.7969 10.2597 13.4176 10.3191L13.437 9.42814L13.7085 9.50734L13.7667 9.88354L13.9025 9.30935L14.2128 9.32915L14.6977 10.4181C16.773 10.4973 18.7901 10.2795 20.0896 10.0221C20.1866 10.8735 20.1478 11.7843 19.9732 12.6555C19.5077 14.8533 18.15 16.9124 15.8614 17.6054C13.7473 17.249 12.3896 15.5066 11.8272 13.4871C11.5944 12.6159 11.4974 11.6853 11.5362 10.7745ZM15.745 28.7328C13.6697 26.0599 12.0211 22.8721 11.0513 18.9518C11.8853 18.7142 12.6612 18.2588 13.2818 17.645C13.9994 18.1994 14.8528 18.5756 15.842 18.7142L15.939 18.734L16.0554 18.6944C16.8118 18.4766 17.4906 18.14 18.0919 17.7044C18.6543 18.3578 19.372 18.833 20.1866 19.13C19.2168 22.6939 17.7427 25.8817 15.745 28.7328Z" fill="black"/>
</svg>
