<svg width="32" height="32" viewBox="0 0 32 32" fill="none" xmlns="http://www.w3.org/2000/svg">
<path d="M26.8006 15.4409C25.6312 14.2955 24.1452 13.5761 22.5339 13.358V10.1568C23.2752 9.78864 23.7868 9.03864 23.7868 8.17955C23.7868 6.95568 22.7567 5.95682 21.4899 5.95682C20.2231 5.95682 19.193 6.95227 19.193 8.17955C19.193 9.04205 19.7011 9.78864 20.4459 10.1568V13.358C19.2348 13.5216 18.0933 13.9716 17.1049 14.6705C16.7639 14.0636 16.3358 13.5011 15.8208 12.9966C14.6515 11.8511 13.1654 11.1318 11.5541 10.9136V8.2C12.2954 7.83182 12.807 7.08182 12.807 6.22273C12.807 4.99886 11.7769 4 10.5101 4C9.24334 4 8.21323 4.99545 8.21323 6.22273C8.21323 7.08523 8.72132 7.83182 9.46607 8.2V10.9136C7.85825 11.1318 6.36876 11.8511 5.19944 12.9966C3.78303 14.3841 3 16.2318 3 18.1989C3 20.1659 3.77955 22.0102 5.19944 23.4011C6.61585 24.7886 8.50208 25.5557 10.5101 25.5557C12.1075 25.5557 13.6283 25.0716 14.8951 24.1716C15.2361 24.7784 15.6642 25.3409 16.1792 25.8455C17.5956 27.233 19.4819 28 21.4899 28C23.4979 28 25.3807 27.2364 26.8006 25.8455C28.217 24.458 29 22.6102 29 20.6432C29 18.6761 28.217 16.8284 26.8006 15.4409ZM10.5136 18.8398C8.98929 18.8398 7.75037 17.6295 7.75037 16.133C7.75037 14.6398 8.98581 13.4261 10.5136 13.4261C12.0414 13.4261 13.2768 14.6364 13.2768 16.133C13.2768 17.6261 12.0379 18.8398 10.5136 18.8398ZM21.4899 21.2841C19.9656 21.2841 18.7267 20.0739 18.7267 18.5773C18.7267 17.0841 19.9621 15.8705 21.4899 15.8705C23.0177 15.8705 24.2531 17.0807 24.2531 18.5773C24.2531 20.0705 23.0177 21.2841 21.4899 21.2841Z" fill="#DDDDDD"/>
</svg>
